<svg xmlns="http://www.w3.org/2000/svg" width="25" height="26" viewBox="0 0 25 26"><g><g><path fill="#f8f8f8" d="M8.875 14.5L7.499 17h15v2.5h-15c-1.9 0-3.1-2.038-2.187-3.713L7 12.737 2.5 3.25H-.002V.75h4.088l1.175 2.5h18.5c.95 0 1.55 1.025 1.088 1.85l-4.476 8.112a2.487 2.487 0 0 1-2.187 1.288zm.537-2.5h8.775l3.45-6.25H6.45zM10 23.25c0 1.375-1.124 2.5-2.5 2.5a2.497 2.497 0 0 1-2.487-2.5c0-1.375 1.113-2.5 2.487-2.5 1.376 0 2.5 1.125 2.5 2.5zm12.5 0c0 1.375-1.125 2.5-2.5 2.5a2.497 2.497 0 0 1-2.487-2.5c0-1.375 1.112-2.5 2.488-2.5 1.374 0 2.5 1.125 2.5 2.5z"/></g></g></svg>