<svg xmlns="http://www.w3.org/2000/svg" width="157.5" height="81.719" viewBox="0 0 157.5 81.719">
  <defs>
    <style>
      .cls-1 {
        fill: #004cff;
      }

      .cls-1, .cls-2 {
        fill-rule: evenodd;
      }

      .cls-2 {
        fill: #262626;
      }
    </style>
  </defs>
  <path id="Path_185" data-name="Path 185" class="cls-1" d="M229.2,143.459s-6.116,4.305-6.343,15.521c-0.168,8.288,4.058,12.37,6.275,13.935-3.26-28.984,25.209-66.656,52.347-50.251,14.348,8.676,9.106,25.3.7,22.5a11.288,11.288,0,0,1-2.958-1.45l-1.512,10.362,6.142-3.794a11.2,11.2,0,0,0,.305,6.849,8.294,8.294,0,0,0-6.825-.471L275.7,167.873c0.8,1.193,1.868,2.456,2.869,2.631,1.961,0.343,2.894-1.569,4.315-5.393s2.059-5.787,3.334-6.277a9.138,9.138,0,0,1,3.237-.343s-2.354,4.8-2.354,8.385,0.67,4.695.67,4.695-4,.4-7.926.7-13.339,2.011-13.339,2.011,0.491-.981,1.864-3.678c0.225-.442.449-0.88,0.666-1.3l3.986-27.115a7.087,7.087,0,0,0-.291-1.589,3.574,3.574,0,0,0-2.064-1.478,13.252,13.252,0,0,0,.545-1.538l2.541-.362,0.012-.082,6.562-.969-0.942,6.451c7.64-1.985,7.6-12.813.34-17.312-22.326-13.836-50.266,23.884-44.663,51.682h0a11.281,11.281,0,0,0,.71,2.043,25.572,25.572,0,0,0,1.7,2.945c-11.106,2.513-21.228-9.664-20.144-18.94a25.793,25.793,0,0,0-5.545,14.047c-0.6,7.853,3.71,9.148,3.71,9.148l-1.726.172s-8.768.078-9.065-4.973c-2.7,4.553-10.649,4.455-10.649,4.455s5.975-1.992,6.708-12.579c0.729-10.524,1.86-20.537-6.708-27.672,0,0,5.45.943,9.748-1.572s4.3-2.935,6.5-3.25a3.3,3.3,0,0,1,3.25,1.468s-4.926-.944-5.452,10.063c-0.362,7.626-.574,16.007-1.473,22.109,2.429-5.588,6.507-12.208,8.437-16.007,2.76-5.437,2.487-8.225,1.862-9.268s-1.808-1.459-1.6-2.015C215.5,146.716,225.969,144.2,229.2,143.459Zm-25.778,15.306,0.8-.921,0.921,0.8-0.8.92Zm130.52,19.376c-9.555,9.555-23.676,5.7-25.259-5.978-0.6-4.394,1.535-13.318,4.33-16.337-6.833-.518-9.492,10.77-8.947,16.182C305.5,186.112,323.609,191.34,333.946,178.141Zm-34.505-23.494c1.575-2.638,4.207-3.774,7.772-2.376l-2.546,4.322c-3.049-2.064-4.992.411-5.959,3.094-0.626,3.961-1.558,7.916,4.129,8.517,0.114,0.011.352-.086,0.352,0.034l0,1.543a132.755,132.755,0,0,0-14.532,1.815,37.132,37.132,0,0,0,1.659-3.951c0.469-1.309,1.088-3.769,1.547-5.7l3-20.252a17.59,17.59,0,0,0-.456-3.666,3.576,3.576,0,0,0-2.064-1.477,13.756,13.756,0,0,0,.546-1.537l3.028-.434,0-.009,4.617-.681,0.031-.082,13.061-1.524c0.124-.015-4.245,8.381-4.608,8.671s-1.305-.037-2.14-1.742-0.435-3.156-1.27-4.1a1.656,1.656,0,0,0-2.576-.291,5.011,5.011,0,0,0-.92,1.316Zm42.242-25.084c-2.324-2.163-7.3-2.922-9.974-.714-1.32,1.089-2.406,3.13-2.631,6.825-0.681,11.146,16.035,22.3,12.514,36.349-2.287,9.131-9.438,13.573-17.926,15.1,10.367,0.888,21.3-3.7,24.45-14.783,4.106-14.425-13.079-28.831-13.439-37.858-0.189-4.768,2.468-5.264,3.987-3.874s1.708,5.065,2.847,7.25,4.177,1.888,4.177,1.888-0.475-6.953,0-9.237a6.861,6.861,0,0,1,2.278-3.675S342.559,126.519,341.683,129.563ZM319.534,164.1a4.113,4.113,0,0,0,2.1,1.585c1.962,0.344,2.894-1.569,4.315-5.394s2.06-5.785,3.335-6.276a9.157,9.157,0,0,1,3.236-.343s-2.354,4.805-2.354,8.385,0.669,4.695.669,4.695-4,.4-7.926.7-13.338,2.01-13.338,2.01,0.492-.981,1.864-3.678c0.729-1.432,1.444-2.808,1.955-3.785l3.764-25.6a5.351,5.351,0,0,0-.269-1.133,9.258,9.258,0,0,0-1.26-1.965l-0.017-1.033a17.91,17.91,0,0,0,2.189-.244l0-.033,6.562-.969-0.006.038c1.573-.265,3.127-0.534,3.109-0.551l0.073,1.128a3.524,3.524,0,0,0-2.841,1.894,17.834,17.834,0,0,0-1.049,2.381Zm-74.708-22.577,2.886-.412,0-.027,6.562-.969-2.326,16.125a16.056,16.056,0,0,1,6.8,7.255l3.629-24.684,6.561-.969-5.308,36.8-6.65.881,1.118-7.61a12.064,12.064,0,0,0-1.3-3.879,11.046,11.046,0,0,0-5.335-4.444l-2.5,17.325-4.04.535,0,0.025-6.119.94,0.2-1a3.634,3.634,0,0,0,2.692-2.148c0.415-1.052,1.394-4.89,2.171-8.041l1.259-8.567c-3.6.465-6.519,2.809-6.412,7.517a8.6,8.6,0,0,1,0-8.679c1.51-2.241,4.134-3.222,7.04-3.093l1-6.828a14.087,14.087,0,0,0-.415-3.045,3.574,3.574,0,0,0-2.064-1.477A13.507,13.507,0,0,0,244.826,141.519Zm-38.876,5.557c-0.835,1.557-3.42,2.3-5.081,2.081a14.6,14.6,0,0,1,3.166,7.911S205.158,149.2,205.95,147.076Z" transform="translate(-191.25 -116.406)"/>
  <path id="Path_186" data-name="Path 186" class="cls-2" d="M299.985,183.842a3.28,3.28,0,0,1-.914,1.63,2.874,2.874,0,0,1-1.644.778,1.31,1.31,0,0,1-1.28-.418,1.766,1.766,0,0,1-.183-1.631c0.028-.119.08-0.313,0.154-0.583a0.3,0.3,0,0,1,.188-0.253c0.079-.011.3-0.05,0.674-0.115s0.6-.1.675-0.114,0.094,0.08.046,0.274l-0.134.549q-0.2.805,0.263,0.743a0.707,0.707,0,0,0,.526-0.6l0.178-.63a0.953,0.953,0,0,0-.4-0.778q-0.813-.84-0.89-0.948a1.378,1.378,0,0,1-.316-1.179l0.233-.952a3.61,3.61,0,0,1,.908-1.695,3.022,3.022,0,0,1,1.754-.9,1.182,1.182,0,0,1,1.223.372,1.611,1.611,0,0,1,.124,1.357l-0.271,1.108a0.235,0.235,0,0,1-.175.2,12.552,12.552,0,0,1-1.289.178c-0.1.014-.141-0.035-0.113-0.147q0.051-.255.244-0.9a0.926,0.926,0,0,0,.024-0.453,0.188,0.188,0,0,0-.209-0.193,0.887,0.887,0,0,0-.644.8l-0.143.581a1.125,1.125,0,0,0,.387.9l0.892,1.023a1.505,1.505,0,0,1,.306,1.224Zm-11.552,3.421a0.157,0.157,0,0,1-.108.21l-1.627.224c-0.064.009-.1-0.036-0.1-0.137q-0.027-.492-0.072-2.327a0.338,0.338,0,0,0-.024-0.18,0.752,0.752,0,0,0-.07.193c-0.163.538-.364,1.343-0.6,2.409a0.208,0.208,0,0,1-.171.186l-1.164.16c-0.1.015-.137-0.049-0.1-0.191l2.134-8.7a0.2,0.2,0,0,1,.157-0.172q0.476-.077,1.278-0.177c0.077,0,.1.044,0.08,0.141q-0.555,2.035-.633,2.392c-0.012.052-.006,0.076,0.017,0.073a0.225,0.225,0,0,0,.084-0.109q0.351-.728,1.217-2.449a0.292,0.292,0,0,1,.194-0.18c0.179-.017.436-0.053,0.77-0.106l0.614-.085c0.111-.015.153,0.03,0.128,0.134a0.251,0.251,0,0,1-.028.069q-0.368.514-1.452,2.187c-0.739,1.148-1.1,1.741-1.1,1.784Q288.046,184.412,288.433,187.263Zm-11.145,1.721a0.113,0.113,0,0,1-.123.081l-0.615.085q-0.447.051-.779,0.1a0.889,0.889,0,0,1-.094-0.691c0.01-.354.029-0.659,0.053-0.916q0.009-.076-0.111-0.06l-0.461.064a0.16,0.16,0,0,0-.127.094c-0.182.464-.406,1-0.67,1.615a0.228,0.228,0,0,1-.131.117l-1.457.2c-0.126.018-.166-0.021-0.12-0.113q0.961-2.346,1.93-4.7a36.646,36.646,0,0,1,2.035-4.566c0.43-.08.857-0.14,1.277-0.176a25.074,25.074,0,0,1-.211,4.314Q277.492,186.705,277.288,188.984Zm-1.3-2.819a6.245,6.245,0,0,0,.089-1.245,1.643,1.643,0,0,0-.277.568l-0.273.742c-0.013.023,0.02,0.034,0.1,0.034a1.011,1.011,0,0,0,.229-0.026A0.158,0.158,0,0,0,275.988,186.165Zm-10.449,4.341a0.252,0.252,0,0,1-.225.172,25.765,25.765,0,0,1-2.978.389c-0.085,0-.112-0.061-0.077-0.195l2.143-8.747a0.177,0.177,0,0,1,.161-0.141q0.915-.135,2.944-0.4c0.127-.017.178,0.019,0.157,0.109-0.03.119-.079,0.321-0.148,0.6-0.094.352-.152,0.575-0.176,0.668a0.19,0.19,0,0,1-.165.159l-1.35.185a0.217,0.217,0,0,0-.207.148c-0.008.037-.077,0.3-0.207,0.8-0.11.419-.187,0.734-0.23,0.941a0.092,0.092,0,0,0,.105.127,9.458,9.458,0,0,0,1.09-.14c0.1-.014.145,0.024,0.13,0.112q-0.037.2-.195,0.752-0.18.642-.208,0.754a0.2,0.2,0,0,1-.168.174l-1.065.147a0.248,0.248,0,0,0-.183.186,15.742,15.742,0,0,0-.456,1.765c-0.023.095,0.033,0.142,0.172,0.137l1.3-.18q0.189-.025.153,0.12Q265.636,190.059,265.539,190.506Zm-10.356,1.341a0.238,0.238,0,0,1-.181.274c-0.154.036-.615,0.095-1.382,0.18-0.087.011-.114-0.082-0.081-0.281,0.085-.5.205-1.063,0.356-1.683q0.414-1.692-.212-1.6a0.244,0.244,0,0,0-.143.02,0.372,0.372,0,0,0-.143.258q-0.43,1.758-.77,3.093a0.375,0.375,0,0,1-.2.319,7.192,7.192,0,0,1-1.225.191c-0.092,0-.113-0.1-0.061-0.306l2.11-8.611a0.288,0.288,0,0,1,.265-0.231q0.653-.092,1.788-0.257a2.013,2.013,0,0,1,1.179.118,0.63,0.63,0,0,1,.35.784l-0.552,2.2a2.079,2.079,0,0,1-.574.986,2.026,2.026,0,0,1-.626.454,0.2,0.2,0,0,0-.112.081c0,0.014.024,0.029,0.082,0.043a0.805,0.805,0,0,1,.405.215q0.444,0.38.01,2.147A8.049,8.049,0,0,0,255.183,191.847Zm-0.03-6.6q0.181-.739-0.347-0.633a1.449,1.449,0,0,1-.184.046,0.227,0.227,0,0,0-.153.205s-0.16.654-.481,1.962q-0.075.311,0.087,0.3a0.5,0.5,0,0,0,.141-0.019,0.568,0.568,0,0,0,.417-0.3A6.505,6.505,0,0,0,255.153,185.251Zm-8.827-.6q-0.183.75-.291,1.144a0.263,0.263,0,0,1-.22.149q-0.532.075-1.459,0.212a0.221,0.221,0,0,0-.18.177l-0.483,1.97c-0.028.113,0,.163,0.077,0.152,0.172-.016.571-0.079,1.2-0.187,0.111-.016.158,0.025,0.142,0.121a12.657,12.657,0,0,1-.36,1.467,0.159,0.159,0,0,1-.145.128q-0.43.049-1.222,0.169a0.229,0.229,0,0,0-.176.165q-0.12.394-.393,1.558l-0.42,1.713a0.237,0.237,0,0,1-.2.18,8.31,8.31,0,0,1-1.508.218,0.1,0.1,0,0,1-.115-0.135s0.71-2.9,2.131-8.69a0.249,0.249,0,0,1,.23-0.195q0.548-.086,1.717-0.236l1.536-.2C246.3,184.512,246.35,184.553,246.326,184.65Z" transform="translate(-191.25 -116.406)"/>
  <path id="Path_187" data-name="Path 187" class="cls-2" d="M237.232,187.944l-0.776,1.843-44.431,5.336S237.135,187.75,237.232,187.944Zm0.582-2.813-0.776,1.843-44.431,5.336S237.717,184.937,237.814,185.131Zm-1.358,5.82L235.68,192.8l-44.431,5.335S236.358,190.758,236.456,190.951Z" transform="translate(-191.25 -116.406)"/>
  <path id="Path_188" data-name="Path 188" class="cls-2" d="M204.669,125.89l-1.741,11.736c-0.4.993-2.352,0.963-2.3-.335l1.632-11.006a5.78,5.78,0,0,1-5.095-3.111l1.974-1.228c2.045,3.286,5.685,1.715,8.669-.142,0.845-.527,1.6-1.049,2.286-1.518,0.148-.1.289-0.2,0.693-0.473a28.6,28.6,0,0,1,3.89-2.291,10.717,10.717,0,0,1,4.283-1.106,6.53,6.53,0,0,1,6.473,4.471,5.554,5.554,0,0,0-1.94,1.451,4.568,4.568,0,0,0-4.5-3.6,8.489,8.489,0,0,0-3.345.9,26.193,26.193,0,0,0-3.565,2.1l-0.674.464c-0.733.5-1.552,1.067-2.376,1.58A19.163,19.163,0,0,1,204.669,125.89Zm22.975-4.074h0a4.243,4.243,0,0,1,3.2,2.686,8.917,8.917,0,0,1,.589,4.8h0a8.946,8.946,0,0,1-1.854,4.475,4.233,4.233,0,0,1-3.8,1.727h0a4.239,4.239,0,0,1-3.2-2.684,8.93,8.93,0,0,1-.588-4.8l0.005-.037h0a8.923,8.923,0,0,1,1.848-4.438A4.241,4.241,0,0,1,227.644,121.816ZM225.783,135.5h0m2.946-10.048a2.035,2.035,0,0,0-1.393-1.339h0a2.039,2.039,0,0,0-1.706.919,6.576,6.576,0,0,0-1.336,3.293l0,0.036h0a6.585,6.585,0,0,0,.411,3.5,2.039,2.039,0,0,0,1.393,1.339h0a2.042,2.042,0,0,0,1.707-.919,6.572,6.572,0,0,0,1.336-3.292h0A6.6,6.6,0,0,0,228.728,125.456Zm-1.393-1.339h0m0.309-2.3h0m-18.027,5.532-1.032,5.337,3.614-4.909,1.116-1.413,0.824,1.6,1.892,3.683,2.68-9.053a1.161,1.161,0,1,1,2.228.654l-2.718,9.185c-0.4,1.361-.7,4.04-2.366,4.04l-2.955-5.851c-2.487,3.143-3.585,5.957-7.368,6.924l1.793-10.573C208.147,124.863,209.927,126.068,209.617,127.348Z" transform="translate(-191.25 -116.406)"/>
</svg>
